<svg width="16" height="15" viewBox="0 0 16 15" fill="none" xmlns="http://www.w3.org/2000/svg">
<path d="M8.00001 0.9375C6.63298 0.939113 5.3224 1.48288 4.35577 2.44951C3.38913 3.41615 2.84537 4.72672 2.84376 6.09375C2.84212 7.21089 3.20703 8.29771 3.88251 9.1875C3.88251 9.1875 4.02313 9.37266 4.0461 9.39937L8.00001 14.0625L11.9558 9.39703C11.9764 9.37219 12.1175 9.1875 12.1175 9.1875L12.118 9.18609C12.7931 8.29669 13.1579 7.21037 13.1563 6.09375C13.1546 4.72672 12.6109 3.41615 11.6442 2.44951C10.6776 1.48288 9.36703 0.939113 8.00001 0.9375ZM9.68751 8.4375L8.00001 7.36359L6.31251 8.4375L6.59376 6.52781L5.18751 5.23734L7.15626 4.99969L8.00001 3.28125L8.89626 5.00016L10.8125 5.23734L9.40626 6.52781L9.68751 8.4375Z" fill="#DB2B39"/>
</svg>
