<svg width="12" height="12" viewBox="0 0 12 12" fill="none" xmlns="http://www.w3.org/2000/svg">
<circle cx="6" cy="6" r="6" fill="#FFF2F2"/>
<path d="M5.99979 4.8C5.92969 4.79986 5.86176 4.82428 5.80779 4.869L4.00779 6.369C3.94652 6.41992 3.908 6.49309 3.90068 6.57242C3.89337 6.65175 3.91787 6.73073 3.96879 6.792C4.01971 6.85326 4.09288 6.89179 4.17221 6.89911C4.25154 6.90642 4.33052 6.88192 4.39179 6.831L5.99979 5.487L7.60779 6.783C7.63848 6.80792 7.67378 6.82653 7.71169 6.83776C7.74959 6.84899 7.78934 6.85262 7.82864 6.84843C7.86795 6.84425 7.90605 6.83234 7.94074 6.81339C7.97543 6.79444 8.00603 6.76882 8.03079 6.738C8.05826 6.70715 8.07907 6.67097 8.09191 6.6317C8.10475 6.59244 8.10934 6.55095 8.10539 6.50983C8.10145 6.46871 8.08906 6.42885 8.06899 6.39274C8.04893 6.35664 8.02162 6.32506 7.98879 6.3L6.18879 4.851C6.13326 4.81334 6.06672 4.79539 5.99979 4.8Z" fill="#DB2B39"/>
</svg>
