<svg width="10" height="16" viewBox="0 0 10 16" fill="none" xmlns="http://www.w3.org/2000/svg">
<path d="M9.06664 0.400023C8.96987 0.303016 8.85493 0.226052 8.72837 0.173538C8.60182 0.121025 8.46615 0.0939941 8.32914 0.0939941C8.19212 0.0939941 8.05645 0.121025 7.9299 0.173538C7.80335 0.226052 7.6884 0.303016 7.59164 0.400023L0.583303 7.40836C0.50605 7.48545 0.44476 7.57702 0.402942 7.67784C0.361124 7.77865 0.3396 7.88672 0.3396 7.99586C0.3396 8.105 0.361124 8.21307 0.402942 8.31388C0.44476 8.41469 0.50605 8.50626 0.583303 8.58336L7.59164 15.5917C7.99997 16 8.6583 16 9.06664 15.5917C9.47497 15.1834 9.47497 14.525 9.06664 14.1167L2.94997 8.00002L9.07497 1.87502C9.47497 1.46669 9.47497 0.808356 9.06664 0.400023Z" fill="#202435"/>
</svg>
